<svg id="Capa_1" enable-background="new 0 0 512.171 512.171" height="512" viewBox="0 0 512.171 512.171" width="512" xmlns="http://www.w3.org/2000/svg"><g><g id="XMLID_536_"><g><path d="m399.577 144.376v223.42c0 19.69-15.97 35.66-35.67 35.66h-107.64l-101.18.23v-294.97h101.18 107.64c19.7 0 35.67 15.97 35.67 35.66z" fill="#6cf5c2"/></g></g><path d="m281.267 403.456v-294.74h-25-101.18v294.97l101.18-.23z" fill="#00f2a6"/><path d="m256.267 349.456h74.674c8.081 0 14.632-6.551 14.632-14.632v-157.477c0-8.081-6.551-14.632-14.632-14.632h-74.674-44.86c-8.081 0-14.632 6.551-14.632 14.632v157.477c0 8.081 6.551 14.632 14.632 14.632z" fill="#7ca1b1"/><g id="XMLID_517_"><g><path d="m281.267 349.456v-186.74h-25-44.86c-8.081 0-14.632 6.551-14.632 14.632v157.477c0 8.081 6.551 14.632 14.632 14.632h44.86 25z" fill="#678d98"/><path d="m105.557 115.286c.983 0 1.78-.797 1.78-1.78 0-23.9 19.37-43.27 43.26-43.27 7.148 0 13.888 1.742 19.831 4.811.591.305 1.3.022 1.52-.606 2.887-8.267 8.191-15.383 15.079-20.515 7.055-5.247 15.771-8.403 25.206-8.545 24.216-.364 44.034 19.999 44.034 44.218v333.827c0 11.98-4.86 22.82-12.7 30.67-7.85 7.85-18.7 12.7-30.67 12.7-18.685 0-34.602-11.811-40.701-28.374-.361-.98-1.499-1.423-2.435-.96-5.778 2.859-12.282 4.474-19.164 4.474-23.89 0-43.26-19.37-43.26-43.27 0-.983-.797-1.78-1.78-1.78h-8.786c-23.184 0-42.628-18.972-42.258-42.153.167-10.505 4.247-20.06 10.841-27.28 1.413-1.548.563-4.033-1.502-4.389-32.005-5.516-56.354-33.397-56.354-66.978 0-33.37 24.046-61.113 55.754-66.872 2.321-.422 3.26-3.183 1.694-4.948-6.354-7.165-10.269-16.541-10.433-26.828-.369-23.181 19.074-42.153 42.258-42.153h8.786z" fill="#fece85"/></g></g><g><path d="m251.818 434.086c-13.797 0-26.085-6.44-34.026-16.478-5.244-6.63-13.672-10.043-22.038-8.83-2.036.295-4.119.448-6.236.448-21.329 0-39.055-15.44-42.611-35.759-.945-5.404-5.729-9.291-11.215-9.291-22.328 0-41.771-18.239-42.254-40.562-.106-4.897.638-9.606 2.095-13.991 3.229-9.717-.947-20.406-10.201-24.788-23.003-10.894-38.914-34.315-38.914-61.459 0-11.536 2.876-22.397 7.947-31.912-27.207 8.88-46.868 34.449-46.868 64.622 0 33.58 24.349 61.462 56.354 66.978 2.066.356 2.916 2.841 1.502 4.389-6.594 7.22-10.673 16.776-10.841 27.28-.369 23.181 19.074 42.153 42.259 42.153h8.786c.977 0 1.78.786 1.78 1.763-.009 23.908 19.364 43.287 43.26 43.287 6.881 0 13.385-1.615 19.163-4.474.936-.463 2.074-.02 2.435.96 6.1 16.562 22.017 28.374 40.701 28.374 11.97 0 22.82-4.85 30.67-12.7 5.462-5.469 9.471-12.391 11.405-20.137-1.042.075-2.091.127-3.153.127z" fill="#fec165"/></g><g fill="#6cf5c2"><path d="m476.438 48.693h23.173c2.795 0 5.06-2.266 5.06-5.06v-23.173c0-2.795-2.266-5.06-5.06-5.06h-23.173c-2.795 0-5.06 2.266-5.06 5.06v23.173c-.001 2.795 2.265 5.06 5.06 5.06z"/><path d="m447.319 106.965h18.949c3.113 0 5.636-2.523 5.636-5.636v-18.949c0-3.113-2.523-5.636-5.636-5.636h-18.949c-3.113 0-5.636 2.523-5.636 5.636v18.949c-.001 3.113 2.523 5.636 5.636 5.636z"/><path d="m476.438 463.478h23.173c2.795 0 5.06 2.266 5.06 5.06v23.173c0 2.795-2.266 5.06-5.06 5.06h-23.173c-2.795 0-5.06-2.266-5.06-5.06v-23.173c-.001-2.794 2.265-5.06 5.06-5.06z"/><path d="m447.319 405.206h18.949c3.113 0 5.636 2.523 5.636 5.636v18.949c0 3.113-2.523 5.636-5.636 5.636h-18.949c-3.113 0-5.636-2.523-5.636-5.636v-18.949c-.001-3.112 2.523-5.636 5.636-5.636z"/></g><g><path d="m107.335 172.072c-4.142 0-7.5 3.358-7.5 7.5v6.205c0 4.142 3.358 7.5 7.5 7.5s7.5-3.358 7.5-7.5v-6.205c0-4.143-3.358-7.5-7.5-7.5z"/><path d="m107.335 318.895c-4.142 0-7.5 3.358-7.5 7.5v6.205c0 4.142 3.358 7.5 7.5 7.5s7.5-3.358 7.5-7.5v-6.205c0-4.142-3.358-7.5-7.5-7.5z"/><path d="m187.512 119.12h-9.208c-4.142 0-7.5 3.358-7.5 7.5s3.358 7.5 7.5 7.5h9.208c12.287 0 22.283 9.996 22.283 22.283v29.373c0 4.142 3.358 7.5 7.5 7.5s7.5-3.358 7.5-7.5v-29.373c0-20.558-16.725-37.283-37.283-37.283z"/><path d="m154.149 200.862c-4.99 0-9.049-4.06-9.049-9.049v-24.792c0-4.142-3.358-7.5-7.5-7.5s-7.5 3.358-7.5 7.5v24.792c0 13.261 10.789 24.049 24.049 24.049 4.142 0 7.5-3.358 7.5-7.5s-3.357-7.5-7.5-7.5z"/><path d="m217.295 318.895c-4.142 0-7.5 3.358-7.5 7.5v29.373c0 12.287-9.996 22.283-22.283 22.283h-9.208c-4.142 0-7.5 3.358-7.5 7.5s3.358 7.5 7.5 7.5h9.208c20.558 0 37.283-16.725 37.283-37.283v-29.373c0-4.142-3.358-7.5-7.5-7.5z"/><path d="m154.149 296.309c-13.261 0-24.049 10.789-24.049 24.049v24.792c0 4.142 3.358 7.5 7.5 7.5s7.5-3.358 7.5-7.5v-24.792c0-4.99 4.06-9.049 9.049-9.049 4.142 0 7.5-3.358 7.5-7.5s-3.357-7.5-7.5-7.5z"/><path d="m363.912 410.956c21.24 0 38.933-15.426 42.495-35.661h12.768c4.143 0 7.5-3.358 7.5-7.5s-3.357-7.5-7.5-7.5h-12.103v-56.944h12.103c4.143 0 7.5-3.358 7.5-7.5s-3.357-7.5-7.5-7.5h-12.103v-64.53h12.103c4.143 0 7.5-3.358 7.5-7.5s-3.357-7.5-7.5-7.5h-12.103v-56.944h12.103c4.143 0 7.5-3.358 7.5-7.5s-3.357-7.5-7.5-7.5h-12.768c-3.562-20.235-21.255-35.661-42.495-35.661h-100.145v-12.467c0-28.05-22.821-50.871-50.871-50.871-19.46 0-36.789 10.879-45.347 27.774-5.422-1.918-11.166-2.914-16.951-2.914-26.057 0-47.582 19.738-50.432 45.046h-4.18c-27.007 0-48.979 21.972-48.979 48.979 0 9.59 2.797 18.83 7.913 26.689-13.373 3.776-25.517 11.211-35.078 21.633-12.795 13.949-19.842 32.061-19.842 51.001s7.047 37.052 19.842 50.999c9.561 10.422 21.705 17.857 35.078 21.633-5.116 7.86-7.913 17.099-7.913 26.689 0 27.007 21.972 48.979 48.979 48.979h4.18c2.851 25.308 24.375 45.046 50.432 45.046 5.785 0 11.529-.995 16.951-2.914 8.559 16.896 25.887 27.774 45.347 27.774 28.05 0 50.871-22.821 50.871-50.871v-12.467h100.145zm-115.145 12.467c0 19.779-16.092 35.871-35.871 35.871-15.717 0-29.462-10.06-34.201-25.032-.679-2.145-2.285-3.872-4.375-4.705s-4.444-.682-6.412.409c-5.271 2.922-11.257 4.467-17.31 4.467-19.72 0-35.763-16.043-35.763-35.763v-34.147c0-4.142-3.358-7.5-7.5-7.5s-7.5 3.358-7.5 7.5v24.864h-3.849c-18.736 0-33.979-15.243-33.979-33.979 0-9.994 4.382-19.441 12.023-25.921 2.303-1.954 3.21-5.098 2.301-7.978s-3.457-4.934-6.465-5.21c-14.942-1.375-28.782-8.249-38.97-19.354-10.251-11.173-15.896-25.684-15.896-40.859s5.645-29.686 15.896-40.859c10.188-11.105 24.028-17.979 38.97-19.354 3.008-.276 5.556-2.33 6.465-5.21.91-2.88.002-6.024-2.301-7.978-7.641-6.479-12.023-15.927-12.023-25.921 0-18.736 15.243-33.979 33.979-33.979h3.849v24.864c0 4.142 3.358 7.5 7.5 7.5s7.5-3.358 7.5-7.5v-34.147c0-19.72 16.043-35.763 35.763-35.763 6.053 0 12.039 1.545 17.31 4.467 1.967 1.091 4.321 1.241 6.412.409 2.09-.833 3.696-2.56 4.375-4.705 4.739-14.973 18.484-25.032 34.201-25.032 19.779 0 35.871 16.092 35.871 35.871v178.313c0 4.142 3.358 7.5 7.5 7.5 4.143 0 7.5-3.358 7.5-7.5v-96.846h74.306v14.061c0 4.142 3.357 7.5 7.5 7.5s7.5-3.358 7.5-7.5v-21.561c0-4.142-3.357-7.5-7.5-7.5h-81.806v-39h100.145c15.528 0 28.161 12.633 28.161 28.161v223.418c0 15.528-12.633 28.161-28.161 28.161h-100.145v-39h81.806c4.143 0 7.5-3.358 7.5-7.5v-133.217c0-4.142-3.357-7.5-7.5-7.5s-7.5 3.358-7.5 7.5v125.717h-74.306v-42.932c0-4.142-3.357-7.5-7.5-7.5-4.142 0-7.5 3.358-7.5 7.5z"/><path d="m282.277 67.69h11.089c4.143 0 7.5-3.358 7.5-7.5s-3.357-7.5-7.5-7.5h-11.089c-4.143 0-7.5 3.358-7.5 7.5s3.357 7.5 7.5 7.5z"/><path d="m499.611 7.899h-23.173c-6.926 0-12.561 5.635-12.561 12.561v5.035h-56.087c-1.989 0-3.896.79-5.304 2.197l-24.996 24.998h-52.161c-4.143 0-7.5 3.358-7.5 7.5s3.357 7.5 7.5 7.5h55.268c1.989 0 3.896-.79 5.304-2.197l24.997-24.998h52.98v3.138c0 6.926 5.635 12.561 12.561 12.561h23.173c6.926 0 12.561-5.635 12.561-12.561v-23.173c-.002-6.926-5.636-12.561-12.562-12.561zm-2.44 33.294h-18.294v-18.294h18.294z"/><path d="m479.404 101.329v-18.949c0-7.243-5.894-13.136-13.137-13.136h-18.948c-7.243 0-13.137 5.893-13.137 13.136v1.975h-25.838c-4.143 0-7.5 3.358-7.5 7.5s3.357 7.5 7.5 7.5h25.838v1.975c0 7.243 5.894 13.136 13.137 13.136h18.948c7.243-.001 13.137-5.894 13.137-13.137zm-15-1.864h-15.222v-15.222h15.222z"/><path d="m292.82 444.482h-10.543c-4.143 0-7.5 3.358-7.5 7.5s3.357 7.5 7.5 7.5h10.543c4.143 0 7.5-3.358 7.5-7.5s-3.358-7.5-7.5-7.5z"/><path d="m499.611 455.978h-23.173c-6.926 0-12.561 5.635-12.561 12.561v3.138h-52.98l-24.997-24.999c-1.407-1.407-3.314-2.197-5.304-2.197h-54.722c-4.143 0-7.5 3.358-7.5 7.5s3.357 7.5 7.5 7.5h51.615l24.997 24.998c1.407 1.407 3.314 2.197 5.304 2.197h56.087v5.035c0 6.926 5.635 12.561 12.561 12.561h23.173c6.926 0 12.561-5.635 12.561-12.561v-23.173c-.001-6.925-5.635-12.56-12.561-12.56zm-2.44 33.294h-18.294v-18.294h18.294z"/><path d="m450.27 262.586c4.143 0 7.5-3.358 7.5-7.5s-3.357-7.5-7.5-7.5h-13.917c-4.143 0-7.5 3.358-7.5 7.5s3.357 7.5 7.5 7.5z"/><path d="m504.671 247.586h-21.636c-4.143 0-7.5 3.358-7.5 7.5s3.357 7.5 7.5 7.5h21.636c4.143 0 7.5-3.358 7.5-7.5s-3.357-7.5-7.5-7.5z"/><path d="m447.319 442.928h18.948c7.243 0 13.137-5.893 13.137-13.136v-18.949c0-7.243-5.894-13.136-13.137-13.136h-18.948c-7.243 0-13.137 5.893-13.137 13.136v1.975h-25.838c-4.143 0-7.5 3.358-7.5 7.5s3.357 7.5 7.5 7.5h25.838v1.975c0 7.242 5.894 13.135 13.137 13.135zm1.863-30.222h15.222v15.222h-15.222z"/></g></g></svg>